<?xml version="1.0" encoding="UTF-8" standalone="no"?>
<!-- Created with Inkscape (http://www.inkscape.org/) -->

<svg
   width="800mm"
   height="800mm"
   viewBox="0 0 800 800"
   version="1.1"
   id="svg1"
   xml:space="preserve"
   inkscape:version="1.3 (0e150ed6c4, 2023-07-21)"
   sodipodi:docname="github.svg"
   xmlns:inkscape="http://www.inkscape.org/namespaces/inkscape"
   xmlns:sodipodi="http://sodipodi.sourceforge.net/DTD/sodipodi-0.dtd"
   xmlns="http://www.w3.org/2000/svg"
   xmlns:svg="http://www.w3.org/2000/svg"><sodipodi:namedview
     id="namedview1"
     pagecolor="#ffffff"
     bordercolor="#000000"
     borderopacity="0"
     inkscape:showpageshadow="2"
     inkscape:pageopacity="0.0"
     inkscape:pagecheckerboard="true"
     inkscape:deskcolor="#d1d1d1"
     inkscape:document-units="mm"
     inkscape:zoom="0.17972959"
     inkscape:cx="740.00058"
     inkscape:cy="1276.9183"
     inkscape:window-width="1920"
     inkscape:window-height="1013"
     inkscape:window-x="0"
     inkscape:window-y="0"
     inkscape:window-maximized="1"
     inkscape:current-layer="layer1" /><defs
     id="defs1" /><g
     inkscape:groupmode="layer"
     id="layer2"
     inkscape:label="Layer 2"><ellipse
       style="fill:#ffffff;stroke-width:0.382345"
       id="path2"
       cx="400"
       cy="400"
       rx="353.13837"
       ry="368.02972" /></g><g
     inkscape:label="Layer 1"
     inkscape:groupmode="layer"
     id="layer1"><g
       style="fill:#000000"
       id="g1"
       transform="matrix(0.27969171,0,0,0.27969171,47.851736,29.793541)"><path
         d="m 2037.3203,1001.3741 c 0,-130.02703 -43.627,-236.37301 -116.054,-319.68001 11.627,-30.187 50.347,-151.36 -11.2,-315.307 0,0 -94.72,-32 -310.4,122.134 -90.133,-26.454 -186.773,-39.68 -282.773,-40.107 -96,0.427 -192.64,13.653 -282.6669,40.107 -215.78701,-154.134 -310.61301,-122.134 -310.61301,-122.134 -61.547,163.947 -22.72,285.12 -11.094,315.307 -72.32,83.307 -116.266,189.65298 -116.266,319.68001 0,456.533 263.68,558.72 514.45291,588.8 0,0 -180.26691,111.68 -180.26691,299.413 -64.32,30.507 -336.533,123.947 -437.333,-58.133 0,0 -59.62701,-114.347 -173.01301,-122.773 0,0 -110.29399,-1.494 -7.787,72.426 0,0 74.027,36.694 125.44,174.294 0,0 57.17301,289.92 489.06701,159.68 4.373,2.24 1.6,140.266 1.6,168.533 h 777.17291 c 0,0 1.28,-277.013 1.28,-365.12 0,-216.64 -144.64,-292.48 -185.28,-329.28 251.627,-29.44 515.733,-130.133 515.733,-587.84"
         fill-rule="evenodd"
         id="path1" /></g></g></svg>
